<mxfile host="app.diagrams.net" modified="2023-10-01T21:54:46.679Z" agent="Mozilla/5.0 (Windows NT 10.0; Win64; x64) AppleWebKit/537.36 (KHTML, like Gecko) Chrome/117.0.0.0 Safari/537.36" version="22.0.0" etag="_d9s1uzXrY2f9c9Ud0oU" type="github">
  <diagram name="Strona-1" id="fR1c5Vah6T0NX4wtJn6T">
    <mxGraphModel>
      <root>
        <mxCell id="0" />
        <mxCell id="1" parent="0" />
      </root>
    </mxGraphModel>
  </diagram>
</mxfile>
